<svg width="187" height="34" viewBox="0 0 187 34" fill="none" xmlns="http://www.w3.org/2000/svg">
<path d="M18 33H34V30.414H26.723C24.1287 32.106 21.0973 33.0047 18 33ZM18 27.182C17.1431 27.1809 16.3217 26.8401 15.7158 26.2342C15.1099 25.6283 14.7691 24.8069 14.768 23.95C14.7685 23.0928 15.1091 22.2708 15.7151 21.6645C16.321 21.0582 17.1428 20.7171 18 20.716V13.282C17.1431 13.2809 16.3217 12.9401 15.7158 12.3342C15.1099 11.7283 14.7691 10.9069 14.768 10.05C14.7688 9.19297 15.1095 8.37126 15.7154 7.76515C16.3214 7.15905 17.143 6.81806 18 6.817V1C9.163 1 2 8.163 2 17C2 25.837 9.163 33 18 33V27.182ZM11.05 20.232C10.1931 20.2309 9.37169 19.8901 8.7658 19.2842C8.15991 18.6783 7.81906 17.8569 7.818 17C7.81906 16.1431 8.15991 15.3217 8.7658 14.7158C9.37169 14.1099 10.1931 13.7691 11.05 13.768C11.9072 13.7685 12.7292 14.1091 13.3355 14.7151C13.9418 15.321 14.2829 16.1428 14.284 17C14.2829 17.8569 13.9421 18.6783 13.3362 19.2842C12.7303 19.8901 11.9089 20.2309 11.052 20.232H11.05Z" fill="#E30B13"/>
<path d="M34 17C34 8.163 26.837 1 18 1V6.818C18.8569 6.81906 19.6783 7.15991 20.2842 7.7658C20.8901 8.37169 21.2309 9.19315 21.232 10.05C21.2315 10.9072 20.8909 11.7292 20.2849 12.3355C19.679 12.9418 18.8572 13.2829 18 13.284V20.718C18.857 20.7191 19.6786 21.0601 20.2846 21.6662C20.8905 22.2723 21.2312 23.094 21.232 23.951C21.2304 24.8075 20.8893 25.6285 20.2835 26.2339C19.6777 26.8394 18.8565 27.1799 18 27.181V33C21.218 33 24.214 32.05 26.723 30.414C31.103 27.56 34 22.618 34 17ZM24.95 13.768C25.8067 13.7693 26.6279 14.1103 27.2336 14.7162C27.8392 15.322 28.1799 16.1433 28.181 17C28.1799 17.8569 27.8391 18.6783 27.2332 19.2842C26.6273 19.8901 25.8059 20.2309 24.949 20.232C24.092 20.2312 23.2703 19.8905 22.6642 19.2846C22.058 18.6786 21.7171 17.857 21.716 17C21.7171 16.143 22.058 15.3214 22.6642 14.7154C23.2703 14.1095 24.092 13.7688 24.949 13.768H24.95Z" fill="#CE080F"/>
<path d="M41.321 26V8.54545H48.5994C49.9063 8.54545 51 8.73011 51.8807 9.09943C52.767 9.46875 53.4318 9.98579 53.875 10.6506C54.3239 11.3153 54.5483 12.0852 54.5483 12.9602C54.5483 13.625 54.4091 14.2188 54.1307 14.7415C53.8523 15.2585 53.4688 15.6875 52.9801 16.0284C52.4915 16.3693 51.9261 16.608 51.2841 16.7443V16.9148C51.9886 16.9489 52.6392 17.1392 53.2358 17.4858C53.8381 17.8324 54.321 18.3153 54.6847 18.9347C55.0483 19.5483 55.2301 20.2756 55.2301 21.1165C55.2301 22.054 54.9915 22.892 54.5142 23.6307C54.0369 24.3636 53.3466 24.9432 52.4432 25.3693C51.5398 25.7898 50.4432 26 49.1534 26H41.321ZM45.5398 22.5994H48.1477C49.0625 22.5994 49.7358 22.4261 50.1676 22.0795C50.6051 21.733 50.8239 21.25 50.8239 20.6307C50.8239 20.1818 50.7188 19.7955 50.5085 19.4716C50.2983 19.142 50 18.8892 49.6136 18.7131C49.2273 18.5312 48.7642 18.4403 48.2244 18.4403H45.5398V22.5994ZM45.5398 15.7216H47.875C48.3352 15.7216 48.7443 15.6449 49.1023 15.4915C49.4602 15.3381 49.7386 15.1165 49.9375 14.8267C50.142 14.5369 50.2443 14.1875 50.2443 13.7784C50.2443 13.1932 50.0369 12.733 49.6222 12.3977C49.2074 12.0625 48.6477 11.8949 47.9432 11.8949H45.5398V15.7216ZM57.2585 26V8.54545H69.429V11.9716H61.4773V15.5511H68.8068V18.9858H61.4773V22.5739H69.429V26H57.2585ZM76.358 8.54545H81.071L84.7614 15.8494H84.9148L88.6051 8.54545H93.3182L86.9347 20.1705V26H82.7415V20.1705L76.358 8.54545ZM95.0866 26V8.54545H107.257V11.9716H99.3054V15.5511H106.635V18.9858H99.3054V22.5739H107.257V26H95.0866ZM109.899 26V8.54545H117.109C118.416 8.54545 119.544 8.78125 120.493 9.25284C121.447 9.71875 122.183 10.3892 122.7 11.2642C123.217 12.1335 123.476 13.1648 123.476 14.358C123.476 15.5682 123.212 16.5966 122.683 17.4432C122.155 18.2841 121.405 18.9261 120.433 19.3693C119.462 19.8068 118.311 20.0256 116.982 20.0256H112.422V16.7017H116.197C116.834 16.7017 117.365 16.6193 117.791 16.4545C118.223 16.2841 118.55 16.0284 118.771 15.6875C118.993 15.3409 119.104 14.8977 119.104 14.358C119.104 13.8182 118.993 13.3722 118.771 13.0199C118.55 12.6619 118.223 12.3949 117.791 12.2188C117.359 12.0369 116.828 11.946 116.197 11.946H114.118V26H109.899ZM119.726 18.0227L124.072 26H119.47L115.209 18.0227H119.726ZM135.224 13.7784C135.168 13.1534 134.915 12.6676 134.466 12.321C134.023 11.9688 133.389 11.7926 132.565 11.7926C132.02 11.7926 131.565 11.8636 131.202 12.0057C130.838 12.1477 130.565 12.3438 130.384 12.5938C130.202 12.8381 130.108 13.1193 130.102 13.4375C130.091 13.6989 130.142 13.929 130.256 14.1278C130.375 14.3267 130.545 14.5028 130.767 14.6562C130.994 14.804 131.267 14.9347 131.585 15.0483C131.903 15.1619 132.261 15.2614 132.659 15.3466L134.159 15.6875C135.023 15.875 135.784 16.125 136.443 16.4375C137.108 16.75 137.665 17.1222 138.114 17.554C138.568 17.9858 138.912 18.483 139.145 19.0455C139.378 19.608 139.497 20.2386 139.503 20.9375C139.497 22.0398 139.219 22.9858 138.668 23.7756C138.116 24.5653 137.324 25.1705 136.29 25.5909C135.261 26.0114 134.02 26.2216 132.565 26.2216C131.105 26.2216 129.832 26.0028 128.747 25.5653C127.662 25.1278 126.818 24.4631 126.216 23.571C125.614 22.679 125.304 21.5511 125.287 20.1875H129.327C129.361 20.75 129.511 21.2188 129.778 21.5938C130.045 21.9688 130.412 22.2528 130.878 22.446C131.349 22.6392 131.895 22.7358 132.514 22.7358C133.082 22.7358 133.565 22.6591 133.963 22.5057C134.366 22.3523 134.676 22.1392 134.892 21.8665C135.108 21.5937 135.219 21.2812 135.224 20.929C135.219 20.5994 135.116 20.3182 134.918 20.0852C134.719 19.8466 134.412 19.642 133.997 19.4716C133.588 19.2955 133.065 19.1335 132.429 18.9858L130.605 18.5597C129.094 18.2131 127.903 17.6534 127.034 16.8807C126.165 16.1023 125.733 15.0511 125.739 13.7273C125.733 12.6477 126.023 11.7017 126.608 10.8892C127.193 10.0767 128.003 9.44318 129.037 8.98864C130.071 8.53409 131.25 8.30682 132.574 8.30682C133.926 8.30682 135.099 8.53693 136.094 8.99716C137.094 9.4517 137.869 10.0909 138.42 10.9148C138.972 11.7386 139.253 12.6932 139.264 13.7784H135.224ZM141.634 26V8.54545H153.804V11.9716H145.852V15.5511H153.182V18.9858H145.852V22.5739H153.804V26H141.634ZM156.446 26V8.54545H160.665V22.5739H167.926V26H156.446ZM170.11 26V8.54545H182.025V11.9716H174.329V15.5511H181.266V18.9858H174.329V26H170.11Z" fill="white"/>
</svg>
