<svg width="202" height="34" viewBox="0 0 202 34" fill="none" xmlns="http://www.w3.org/2000/svg">
<path d="M18 33H34V30.414H26.723C24.1287 32.106 21.0973 33.0047 18 33ZM18 27.182C17.1431 27.1809 16.3217 26.8401 15.7158 26.2342C15.1099 25.6283 14.7691 24.8069 14.768 23.95C14.7685 23.0928 15.1091 22.2708 15.7151 21.6645C16.321 21.0582 17.1428 20.7171 18 20.716V13.282C17.1431 13.2809 16.3217 12.9401 15.7158 12.3342C15.1099 11.7283 14.7691 10.9069 14.768 10.05C14.7688 9.19297 15.1095 8.37126 15.7154 7.76515C16.3214 7.15905 17.143 6.81806 18 6.817V1C9.163 1 2 8.163 2 17C2 25.837 9.163 33 18 33V27.182ZM11.05 20.232C10.1931 20.2309 9.37169 19.8901 8.7658 19.2842C8.15991 18.6783 7.81906 17.8569 7.818 17C7.81906 16.1431 8.15991 15.3217 8.7658 14.7158C9.37169 14.1099 10.1931 13.7691 11.05 13.768C11.9072 13.7685 12.7292 14.1091 13.3355 14.7151C13.9418 15.321 14.2829 16.1428 14.284 17C14.2829 17.8569 13.9421 18.6783 13.3362 19.2842C12.7303 19.8901 11.9089 20.2309 11.052 20.232H11.05Z" fill="#E30B13"/>
<path d="M34 17C34 8.163 26.837 1 18 1V6.818C18.8569 6.81906 19.6783 7.15991 20.2842 7.7658C20.8901 8.37169 21.2309 9.19315 21.232 10.05C21.2315 10.9072 20.8909 11.7292 20.2849 12.3355C19.679 12.9418 18.8572 13.2829 18 13.284V20.718C18.857 20.7191 19.6786 21.0601 20.2846 21.6662C20.8905 22.2723 21.2312 23.094 21.232 23.951C21.2304 24.8075 20.8893 25.6285 20.2835 26.2339C19.6777 26.8394 18.8565 27.1799 18 27.181V33C21.218 33 24.214 32.05 26.723 30.414C31.103 27.56 34 22.618 34 17ZM24.95 13.768C25.8067 13.7693 26.6279 14.1103 27.2336 14.7162C27.8392 15.322 28.1799 16.1433 28.181 17C28.1799 17.8569 27.8391 18.6783 27.2332 19.2842C26.6273 19.8901 25.8059 20.2309 24.949 20.232C24.092 20.2312 23.2703 19.8905 22.6642 19.2846C22.058 18.6786 21.7171 17.857 21.716 17C21.7171 16.143 22.058 15.3214 22.6642 14.7154C23.2703 14.1095 24.092 13.7688 24.949 13.768H24.95Z" fill="#CE080F"/>
<path d="M55.462 17.7273C55.462 19.3466 55.1471 20.7126 54.5174 21.8253C53.8877 22.9332 53.0378 23.7737 51.9677 24.3466C50.8976 24.9148 49.7044 25.1989 48.3881 25.1989C47.0624 25.1989 45.8645 24.9124 44.7944 24.3395C43.729 23.7618 42.8815 22.919 42.2518 21.8111C41.6268 20.6984 41.3143 19.3371 41.3143 17.7273C41.3143 16.108 41.6268 14.7443 42.2518 13.6364C42.8815 12.5237 43.729 11.6832 44.7944 11.1151C45.8645 10.5421 47.0624 10.2557 48.3881 10.2557C49.7044 10.2557 50.8976 10.5421 51.9677 11.1151C53.0378 11.6832 53.8877 12.5237 54.5174 13.6364C55.1471 14.7443 55.462 16.108 55.462 17.7273ZM51.3995 17.7273C51.3995 16.8561 51.2835 16.1222 51.0515 15.5256C50.8242 14.9242 50.4857 14.4697 50.0359 14.1619C49.5908 13.8494 49.0415 13.6932 48.3881 13.6932C47.7347 13.6932 47.1831 13.8494 46.7333 14.1619C46.2882 14.4697 45.9497 14.9242 45.7177 15.5256C45.4904 16.1222 45.3768 16.8561 45.3768 17.7273C45.3768 18.5985 45.4904 19.3348 45.7177 19.9361C45.9497 20.5327 46.2882 20.9872 46.7333 21.2997C47.1831 21.6075 47.7347 21.7614 48.3881 21.7614C49.0415 21.7614 49.5908 21.6075 50.0359 21.2997C50.4857 20.9872 50.8242 20.5327 51.0515 19.9361C51.2835 19.3348 51.3995 18.5985 51.3995 17.7273ZM69.8743 10.4545V25H66.5788L61.3232 17.358H61.2379V25H57.2891V10.4545H60.6413L65.8118 18.0682H65.9254V10.4545H69.8743ZM71.7422 25V10.4545H75.6911V21.8182H81.5717V25H71.7422ZM87.1168 10.4545V25H83.168V10.4545H87.1168ZM101.574 10.4545V25H98.2781L93.0224 17.358H92.9371V25H88.9883V10.4545H92.3406L97.511 18.0682H97.6246V10.4545H101.574ZM103.441 25V10.4545H113.924V13.6364H107.39V16.1364H113.385V19.3182H107.39V21.8182H113.896V25H103.441ZM133.447 15.9091H129.441C129.413 15.5777 129.337 15.277 129.214 15.0071C129.095 14.7372 128.93 14.5052 128.717 14.3111C128.508 14.1122 128.255 13.9607 127.957 13.8565C127.658 13.7476 127.32 13.6932 126.941 13.6932C126.278 13.6932 125.717 13.8542 125.258 14.1761C124.803 14.4981 124.458 14.9598 124.221 15.5611C123.989 16.1624 123.873 16.8845 123.873 17.7273C123.873 18.6174 123.991 19.3632 124.228 19.9645C124.469 20.5611 124.817 21.0109 125.272 21.3139C125.727 21.6122 126.273 21.7614 126.913 21.7614C127.277 21.7614 127.604 21.7164 127.893 21.6264C128.182 21.5317 128.433 21.3968 128.646 21.2216C128.859 21.0464 129.031 20.8357 129.164 20.5895C129.301 20.3385 129.394 20.0568 129.441 19.7443L133.447 19.7727C133.399 20.3883 133.227 21.0156 132.928 21.6548C132.63 22.2893 132.206 22.8764 131.657 23.4162C131.112 23.9512 130.438 24.3821 129.633 24.7088C128.828 25.0355 127.893 25.1989 126.827 25.1989C125.492 25.1989 124.294 24.9124 123.234 24.3395C122.178 23.7666 121.342 22.9238 120.727 21.8111C120.116 20.6984 119.81 19.3371 119.81 17.7273C119.81 16.108 120.123 14.7443 120.748 13.6364C121.373 12.5237 122.216 11.6832 123.276 11.1151C124.337 10.5421 125.521 10.2557 126.827 10.2557C127.746 10.2557 128.591 10.3812 129.363 10.6321C130.135 10.883 130.812 11.25 131.394 11.733C131.977 12.2112 132.445 12.8007 132.8 13.5014C133.156 14.2022 133.371 15.0047 133.447 15.9091ZM139.187 10.4545V25H135.238V10.4545H139.187ZM153.644 10.4545V25H150.348L145.093 17.358H145.007V25H141.059V10.4545H144.411L149.581 18.0682H149.695V10.4545H153.644ZM155.512 25V10.4545H165.995V13.6364H159.461V16.1364H165.455V19.3182H159.461V21.8182H165.966V25H155.512ZM167.953 10.4545H172.868L176.249 18.6932H176.419L179.8 10.4545H184.714V25H180.851V16.5909H180.737L177.499 24.8864H175.169L171.93 16.5341H171.817V25H167.953V10.4545ZM190.364 25H186.103L190.904 10.4545H196.302L201.103 25H196.842L193.66 14.4602H193.546L190.364 25ZM189.569 19.2614H197.58V22.2159H189.569V19.2614Z" fill="white"/>
</svg>
